<svg xmlns="http://www.w3.org/2000/svg" width="51.3" height="51.3" viewBox="0 0 51.3 51.3">
    <path fill="#fff" d="M3.6 4.3h44v43h-44z"/>
    <path fill="#fd8011" d="M43.8 51.3H7.5A7.5 7.5 0 0 1 0 43.8V7.5A7.5 7.5 0 0 1 7.5 0h36.3a7.5 7.5 0 0 1 7.5 7.5v36.3a7.5 7.5 0 0 1-7.5 7.5M7.5 4.3a3.2 3.2 0 0 0-3.1 3.2v36.3a3.2 3.2 0 0 0 3.1 3.1h36.3a3.2 3.2 0 0 0 3.1-3.1V7.5a3.2 3.2 0 0 0-3.1-3.1Z" />
    <path fill="#fd8011" d="M25.7 44.8a19.2 19.2 0 1 1 19.2-19.2 19.2 19.2 0 0 1-19.2 19.2m0-34.3a15.2 15.2 0 1 0 15.1 15.1 15.2 15.2 0 0 0-15.1-15.1" />
    <path fill="#2a2e33" d="M37.4 25.6a11.8 11.8 0 0 0-.1-1.7H30l5.2-5.2a12 12 0 0 0-2.6-2.5l-5.2 5.2V14a10.7 10.7 0 0 0-3.5 0v7.4l-5.2-5.2a11.8 11.8 0 0 0-2.6 2.5l5.2 5.2H14a10.7 10.7 0 0 0 0 3.6h7.3l-5.1 5.1a11.8 11.8 0 0 0 2.5 2.6L24 30v7.3a10.8 10.8 0 0 0 3.5 0V30l5.2 5.2a12 12 0 0 0 2.5-2.6L30 27.5h7.3a11.7 11.7 0 0 0 .1-1.9" />
    <path fill="#fd8011" d="M43.7 9.7A1.7 1.7 0 1 1 42 8a1.7 1.7 0 0 1 1.7 1.7" />
</svg>